<?xml version="1.0" encoding="utf-8"?><svg xml:space="preserve" viewBox="0 0 100 100" y="0" x="0" xmlns="http://www.w3.org/2000/svg" id="圖層_1" version="1.1" width="78px" height="78px" xmlns:xlink="http://www.w3.org/1999/xlink" style="width:100%;height:100%;background-size:initial;background-repeat-y:initial;background-repeat-x:initial;background-position-y:initial;background-position-x:initial;background-origin:initial;background-color:initial;background-clip:initial;background-attachment:initial;animation-play-state:paused" ><g class="ldl-scale" style="transform-origin:50% 50%;transform:rotate(0deg) scale(1, 1);animation-play-state:paused" ><path d="M30.9 80.2c0 1.3 1.5 1.9 2.5 1.1l32.9-30.2c.3-.3.5-.7.5-1.1 0-.4-.2-.8-.5-1.1l-33-30.2c-.9-.9-2.5-.2-2.5 1.1v18.1H12.1c-1.1 0-2.1.9-2.1 2.1v20.1c0 1.1.9 2.1 2.1 2.1h18.8v18z" id="XMLID_21_" style="fill:rgb(44, 140, 20);animation-play-state:paused" ></path>
<g style="animation-play-state:paused" ><path fill="#353035" d="M76 82.3H57.1c-2.7 0-4.9-2.2-4.9-4.9s2.2-4.9 4.9-4.9H76c2.3 0 4.3-1.9 4.3-4.3V31.6c0-2.3-1.9-4.3-4.3-4.3H57.1c-2.7 0-4.9-2.2-4.9-4.9s2.2-4.9 4.9-4.9H76c7.7 0 14 6.3 14 14v36.7c0 7.9-6.3 14.1-14 14.1z" style="fill:rgb(44, 140, 20);animation-play-state:paused" ></path></g>
<metadata xmlns:d="https://loading.io/stock/" style="animation-play-state:paused" ><d:name style="animation-play-state:paused" >login</d:name>


<d:tags style="animation-play-state:paused" >enter,sign in,sign up,join,subscribe,arrow,login,web application</d:tags>


<d:license style="animation-play-state:paused" >by</d:license>


<d:slug style="animation-play-state:paused" >3uadpc</d:slug></metadata></g><!-- generated by https://loading.io/ --></svg>