<?xml version="1.0" encoding="utf-8"?><svg xml:space="preserve" viewBox="0 0 100 100" y="0" x="0" xmlns="http://www.w3.org/2000/svg" id="Layer_1" version="1.1" width="86px" height="86px" xmlns:xlink="http://www.w3.org/1999/xlink" style="width:100%;height:100%;background-size:initial;background-repeat-y:initial;background-repeat-x:initial;background-position-y:initial;background-position-x:initial;background-origin:initial;background-color:initial;background-clip:initial;background-attachment:initial;animation-play-state:paused" ><g class="ldl-scale" style="transform-origin:50% 50%;transform:rotate(0deg) scale(1, 1);animation-play-state:paused" ><path fill="#f4e6c8" d="M50.5 25.1c-.2-.4-.8-.4-1 0L18.2 74.3c-.1.2-.1.5.1.7l.1.2h62.8c.1 0 .4 0 .5-.3.2-.3 0-.6 0-.6L50.5 25.1z" style="fill:rgb(244, 230, 200);animation-play-state:paused" ></path>
<path fill="#c33837" d="M57.2 20.6c-1.6-2.4-4.3-3.9-7.2-3.9-2.9 0-5.6 1.4-7.3 3.9L11.5 69.7c-1.8 2.7-2 6.1-.5 9 1.5 2.9 4.5 4.6 7.7 4.6h62.5c3.2 0 6.2-1.8 7.7-4.6 1.5-2.9 1.4-6.3-.4-9L57.2 20.6zm24.6 54.2c-.2.3-.4.3-.5.3H18.5l-.2-.1c-.2-.2-.2-.4-.1-.7l31.3-49.2c.3-.4.8-.4 1 0l31.3 49.1c0 .1.2.3 0 .6z" style="fill:rgb(195, 56, 55);animation-play-state:paused" ></path>
<path d="M61.9 52L57 47.1l-7 7-7-7-4.9 4.9 7 7-7 7 4.9 4.9 7-7 7 7 4.9-4.9-7-7z" fill="#e15c64" style="fill:rgb(225, 92, 100);animation-play-state:paused" ></path>
<metadata xmlns:d="https://loading.io/stock/" style="animation-play-state:paused" ><d:name style="animation-play-state:paused" >error</d:name>
<d:tags style="animation-play-state:paused" >fail,disable,exception,errant,bad,break,stop,error,web application</d:tags>
<d:license style="animation-play-state:paused" >by</d:license>
<d:slug style="animation-play-state:paused" >6nl4qf</d:slug></metadata></g><!-- generated by https://loading.io/ --></svg>